<?xml version="1.0" encoding="UTF-8"?>
<!DOCTYPE svg PUBLIC "-//W3C//DTD SVG 1.1//EN" "http://www.w3.org/Graphics/SVG/1.1/DTD/svg11.dtd">
<!-- Creator: CorelDRAW -->
<svg xmlns="http://www.w3.org/2000/svg" xml:space="preserve" width="4.33334in" height="4.33334in" style="shape-rendering:geometricPrecision; text-rendering:geometricPrecision; image-rendering:optimizeQuality; fill-rule:evenodd; clip-rule:evenodd"
viewBox="0 0 3.53905 3.53905"
 xmlns:xlink="http://www.w3.org/1999/xlink">
 <defs>
  <style type="text/css">
   <![CDATA[
    .str0 {stroke:#FEFEFE;stroke-width:0.272235}
    .fil0 {fill:none}
    .fil1 {fill:#FEFEFE}
   ]]>
  </style>
 </defs>
 <g id="Layer_x0020_1">
  <metadata id="CorelCorpID_0Corel-Layer"/>
  <path class="fil0 str0" d="M3.40293 1.76952c0,-0.901774 -0.73163,-1.6334 -1.6334,-1.6334 -0.901774,0 -1.6334,0.73163 -1.6334,1.6334 0,0.901774 0.73163,1.6334 1.6334,1.6334 0.901774,0 1.6334,-0.73163 1.6334,-1.6334z"/>
  <path class="fil1" d="M1.43195 2.43684l0.973663 -0.588196c0.027591,-0.0168099 0.0444428,-0.046806 0.0444428,-0.0791172 0,-0.0323144 -0.0168517,-0.0623105 -0.0444395,-0.0791172l-0.973667 -0.588196c-0.0142216,-0.00851428 -0.0305363,-0.0130383 -0.0471276,-0.0130383 -0.050642,0 -0.0917086,0.0410666 -0.0917086,0.0917086 0,0.000167199 0,0.000369767 0,0.000536966l-3.21536e-006 1.17622c3.21536e-006,0.000160768 3.21536e-006,0.000363336 3.21536e-006,0.000530535 0,0.050642 0.0410666,0.0917086 0.0917086,0.0917086 0.0165913,0 0.032906,-0.00452402 0.0471372,-0.0130447l-9.64609e-006 9.64609e-006z"/>
 </g>
</svg>
