<?xml version="1.0" encoding="UTF-8"?>
<!DOCTYPE svg PUBLIC "-//W3C//DTD SVG 1.1//EN" "http://www.w3.org/Graphics/SVG/1.1/DTD/svg11.dtd">
<!-- Creator: CorelDRAW -->
<svg xmlns="http://www.w3.org/2000/svg" xml:space="preserve" width="4.33334in" height="4.33334in" style="shape-rendering:geometricPrecision; text-rendering:geometricPrecision; image-rendering:optimizeQuality; fill-rule:evenodd; clip-rule:evenodd"
viewBox="0 0 4.33334 4.33334"
 xmlns:xlink="http://www.w3.org/1999/xlink">
 <defs>
  <style type="text/css">
   <![CDATA[
    .str0 {stroke:#FEFEFE;stroke-width:0.333335}
    .fil0 {fill:none}
    .fil1 {fill:#FEFEFE}
   ]]>
  </style>
 </defs>
 <g id="Layer_x0020_1">
  <metadata id="CorelCorpID_0Corel-Layer"/>
  <path class="fil0 str0" d="M4.16667 2.16667c0,-1.10417 -0.895835,-2 -2,-2 -1.10417,0 -2,0.895835 -2,2 0,1.10417 0.895835,2 2,2 1.10417,0 2,-0.895835 2,-2z"/>
  <path class="fil1" d="M2.73333 3l-1.13333 0c-0.147185,-0.000106299 -0.266563,-0.119484 -0.266661,-0.266685l-7.87402e-006 -1.13331c0.000106299,-0.147189 0.119484,-0.266567 0.266685,-0.266665l1.13331 -3.93701e-006c0.147189,0.000102362 0.266567,0.11948 0.266665,0.266681l3.93701e-006 1.13332c-0.000102362,0.147185 -0.11948,0.266563 -0.266681,0.266661l1.1811e-005 7.87402e-006z"/>
 </g>
</svg>
